<svg xmlns="http://www.w3.org/2000/svg" width="121.098" height="37.574" viewBox="0 0 121.098 37.574">
    <defs>
        <style>
            .cls-1{fill:#faa21b}.cls-2{fill:#dbd8d6}
        </style>
    </defs>
    <g id="Group_511" data-name="Group 511" transform="translate(-374 -65)">
        <g id="Solo_Single_Logo" data-name="Solo Single Logo" transform="translate(-36.6 -206.2)">
            <path id="Path_570" d="M428.1 271.2h-1.034l-.624.059-.254.02c-5.209.6-9.989 3.824-9.989 9.5 0 4.292 2.283 7.94 10.223 11.647.468.254.956.488 1.463.741 4.019 2.029 7.706 3.668 7.706 7.14a5.645 5.645 0 0 1-.722 2.79c1.873-1.814 3.082-4.624 3.59-8.428-1.346-2.478-4.1-4.78-9.111-7.121-.468-.254-.956-.488-1.463-.741-4.019-2.029-7.706-3.668-7.706-7.16a5.982 5.982 0 0 1 3.687-5.462 11.8 11.8 0 0 1 4.233-.722c8.564 0 11.588 7.179 11.588 16.524 0 9.384-3.024 16.524-11.588 16.524s-11.608-7.14-11.608-16.524a35.672 35.672 0 0 1 .2-3.882 10.088 10.088 0 0 1-1.424-5.365 9.314 9.314 0 0 1 2.185-6.145c-4.351 3.375-6.848 8.916-6.848 15.393 0 10.671 6.77 18.787 17.5 18.787 10.671 0 17.441-8.116 17.441-18.787 0-10.613-6.77-18.787-17.441-18.787" class="cls-1" data-name="Path 570"/>
        </g>
        <g id="Group_510" data-name="Group 510" transform="translate(-11666 8085.5)">
            <path id="Path_571" d="M35.368 584.771a7.687 7.687 0 0 0 1.251 2.261 3.914 3.914 0 0 0 3.1 1.469 2.536 2.536 0 0 0 1.736-.638 2.249 2.249 0 0 0 .735-1.776 2.471 2.471 0 0 0-.735-1.784 12.952 12.952 0 0 0-2.026-1.445l-1.792-1.122a6.392 6.392 0 0 1-1.292-1.033 3.21 3.21 0 0 1-.9-2.2 3.6 3.6 0 0 1 1.058-2.648 3.794 3.794 0 0 1 2.8-1.057 5.43 5.43 0 0 1 1.728.355 7.536 7.536 0 0 0 1.154.355.683.683 0 0 0 .541-.186 1.384 1.384 0 0 0 .234-.525h.428l.46 4.472h-.5a4.678 4.678 0 0 0-1.647-2.818 3.89 3.89 0 0 0-2.244-.8 2.347 2.347 0 0 0-1.5.508 1.7 1.7 0 0 0-.638 1.413 2.06 2.06 0 0 0 .492 1.389 6.422 6.422 0 0 0 1.526 1.219l1.849 1.138a9.615 9.615 0 0 1 2.446 1.962 3.383 3.383 0 0 1 .7 2.131 3.55 3.55 0 0 1-1.243 2.761 4.645 4.645 0 0 1-3.189 1.106 6.072 6.072 0 0 1-2.034-.371 8.376 8.376 0 0 0-1.219-.371.529.529 0 0 0-.5.226 1.334 1.334 0 0 0-.17.484h-.46l-.622-4.473h.468z" class="cls-2" data-name="Path 571" transform="translate(12056.1 -8583.292)"/>
            <path id="Path_572" d="M274.073 586.858a4 4 0 0 0 3.205 1.582 4.053 4.053 0 0 0 3.181-1.542q1.32-1.55 1.324-4.941 0-3.439-1.332-4.965a4.077 4.077 0 0 0-3.165-1.526 4 4 0 0 0-3.2 1.582 9.9 9.9 0 0 0-.016 9.809m-1.566-10.3a7.058 7.058 0 0 1 9.551.008 7.918 7.918 0 0 1-.065 10.826 6.682 6.682 0 0 1-4.707 1.809 6.579 6.579 0 0 1-4.909-2 7.208 7.208 0 0 1-1.978-5.248 7.1 7.1 0 0 1 2.107-5.393" class="cls-2" data-name="Path 572" transform="translate(11837.277 -8583.2)"/>
            <path id="Path_573" d="M559.5 591.915a3.046 3.046 0 0 0 1.5-.412c.226-.194.347-.686.347-1.477v-9.349a2.183 2.183 0 0 0-.339-1.461 2.53 2.53 0 0 0-1.51-.428v-.388h5.934v.387a2.931 2.931 0 0 0-1.558.38 1.727 1.727 0 0 0-.4 1.364v10.1a1.064 1.064 0 0 0 .121.549.645.645 0 0 0 .517.25c.161.016.323.032.5.04s.5.008.985.008a10.342 10.342 0 0 0 3.795-.46 4.882 4.882 0 0 0 1.913-2.358h.533l-1.025 3.641h-11.3v-.388z" class="cls-2" data-name="Path 573" transform="translate(11569.179 -8586.602)"/>
            <path id="Path_574" d="M823.181 586.858a4 4 0 0 0 3.205 1.582 4.053 4.053 0 0 0 3.181-1.542q1.32-1.55 1.324-4.941 0-3.439-1.332-4.965a4.077 4.077 0 0 0-3.165-1.526 4 4 0 0 0-3.2 1.582 7.639 7.639 0 0 0-1.308 4.909 7.533 7.533 0 0 0 1.292 4.9m-1.574-10.3a7.058 7.058 0 0 1 9.551.008 7.918 7.918 0 0 1-.065 10.826 6.682 6.682 0 0 1-4.707 1.809 6.579 6.579 0 0 1-4.909-2 7.208 7.208 0 0 1-1.978-5.248 7.127 7.127 0 0 1 2.107-5.393" class="cls-2" data-name="Path 574" transform="translate(11327.834 -8583.2)"/>
        </g>
    </g>
</svg>
